<?xml version="1.0" encoding="UTF-8" standalone="no"?>
<!-- Created with Inkscape (http://www.inkscape.org/) -->

<svg
   xmlns:dc="http://purl.org/dc/elements/1.1/"
   xmlns:cc="http://creativecommons.org/ns#"
   xmlns:rdf="http://www.w3.org/1999/02/22-rdf-syntax-ns#"
   xmlns:svg="http://www.w3.org/2000/svg"
   xmlns="http://www.w3.org/2000/svg"
   xmlns:sodipodi="http://sodipodi.sourceforge.net/DTD/sodipodi-0.dtd"
   xmlns:inkscape="http://www.inkscape.org/namespaces/inkscape"
   id="svg2"
   version="1.1"
   inkscape:version="0.48.4 r9939"
   width="1000"
   height="750"
   xml:space="preserve"
   sodipodi:docname="vetted_vector.ai"><metadata
     id="metadata8"><rdf:RDF><cc:Work
         rdf:about=""><dc:format>image/svg+xml</dc:format><dc:type
           rdf:resource="http://purl.org/dc/dcmitype/StillImage" /><dc:title></dc:title></cc:Work></rdf:RDF></metadata><defs
     id="defs6"><clipPath
       clipPathUnits="userSpaceOnUse"
       id="clipPath36"><path
         d="M 0,600 800,600 800,0 0,0 0,600 z"
         id="path38" /></clipPath></defs><sodipodi:namedview
     pagecolor="#ffffff"
     bordercolor="#666666"
     borderopacity="1"
     objecttolerance="10"
     gridtolerance="10"
     guidetolerance="10"
     inkscape:pageopacity="0"
     inkscape:pageshadow="2"
     inkscape:window-width="1319"
     inkscape:window-height="744"
     id="namedview4"
     showgrid="false"
     inkscape:zoom="0.62933333"
     inkscape:cx="581.81389"
     inkscape:cy="370.51152"
     inkscape:window-x="47"
     inkscape:window-y="24"
     inkscape:window-maximized="1"
     inkscape:current-layer="g10" /><g
     id="g10"
     inkscape:groupmode="layer"
     inkscape:label="vetted_vector"
     transform="matrix(1.25,0,0,-1.25,0,750)"><g
       id="g12"
       transform="translate(234.1328,300)"><path
         d="m 0,0 -24.662,62.786 12.519,0 19.015,-50.737 19.014,50.737 12.52,0 L 13.743,0 0,0 z"
         style="fill:#f26936;fill-opacity:1;fill-rule:nonzero;stroke:none"
         id="path14" /></g><g
       id="g16"
       transform="translate(288.7319,300)"><path
         d="m 0,0 0,62.786 43.018,0 0,-9.696 -32.004,0 0,-16.191 31.346,0 0,-9.695 -31.346,0 0,-17.509 32.004,0 L 43.018,0 0,0 z"
         style="fill:#373535;fill-opacity:1;fill-rule:nonzero;stroke:none"
         id="path18" /></g><g
       id="g20"
       transform="translate(367.4287,300)"><path
         d="m 0,0 0,53.09 -19.015,0 0,9.696 49.042,0 0,-9.696 -19.013,0 L 11.014,0 0,0 z"
         style="fill:#373535;fill-opacity:1;fill-rule:nonzero;stroke:none"
         id="path22" /></g><g
       id="g24"
       transform="translate(431.1592,300)"><path
         d="m 0,0 0,53.09 -19.015,0 0,9.696 49.042,0 0,-9.696 -19.013,0 L 11.014,0 0,0 z"
         style="fill:#373535;fill-opacity:1;fill-rule:nonzero;stroke:none"
         id="path26" /></g><g
       id="g28"
       transform="translate(479.9229,300)"><path
         d="m 0,0 0,62.786 43.018,0 0,-9.696 -32.005,0 0,-16.191 31.346,0 0,-9.695 -31.346,0 0,-17.509 32.005,0 L 43.018,0 0,0 z"
         style="fill:#373535;fill-opacity:1;fill-rule:nonzero;stroke:none"
         id="path30" /></g><g
       id="g32"><g
         id="g34"
         clip-path="url(#clipPath36)"><g
           id="g40"
           transform="translate(588.5527,331.4399)"><path
             d="m 0,0 c 0,12.049 -7.53,21.65 -21.462,21.65 l -12.426,0 0,-43.395 12.332,0 C -7.907,-21.745 0,-11.955 0,0 m -44.9,-31.44 0,62.786 23.344,0 c 19.673,0 32.852,-12.991 32.852,-31.346 0,-18.544 -13.179,-31.44 -32.758,-31.44 l -23.438,0 z"
             style="fill:#373535;fill-opacity:1;fill-rule:nonzero;stroke:none"
             id="path42" /></g></g></g></g></svg>