<?xml version="1.0" encoding="UTF-8" standalone="no"?>
<!-- Created with Inkscape (http://www.inkscape.org/) -->

<svg
   xmlns:dc="http://purl.org/dc/elements/1.1/"
   xmlns:cc="http://creativecommons.org/ns#"
   xmlns:rdf="http://www.w3.org/1999/02/22-rdf-syntax-ns#"
   xmlns:svg="http://www.w3.org/2000/svg"
   xmlns="http://www.w3.org/2000/svg"
   xmlns:sodipodi="http://sodipodi.sourceforge.net/DTD/sodipodi-0.dtd"
   xmlns:inkscape="http://www.inkscape.org/namespaces/inkscape"
   id="svg2"
   version="1.1"
   inkscape:version="0.48.4 r9939"
   width="620"
   height="80"
   xml:space="preserve"
   sodipodi:docname="vetted_vector-black.ai.svg"><metadata
     id="metadata8"><rdf:RDF><cc:Work
         rdf:about=""><dc:format>image/svg+xml</dc:format><dc:type
           rdf:resource="http://purl.org/dc/dcmitype/StillImage" /><dc:title></dc:title></cc:Work></rdf:RDF></metadata><defs
     id="defs6"><clipPath
       clipPathUnits="userSpaceOnUse"
       id="clipPath36"><path
         d="M 0,600 800,600 800,0 0,0 0,600 z"
         id="path38"
         inkscape:connector-curvature="0" /></clipPath></defs><sodipodi:namedview
     pagecolor="#ffffff"
     bordercolor="#666666"
     borderopacity="1"
     objecttolerance="10"
     gridtolerance="10"
     guidetolerance="10"
     inkscape:pageopacity="0"
     inkscape:pageshadow="2"
     inkscape:window-width="1319"
     inkscape:window-height="744"
     id="namedview4"
     showgrid="false"
     inkscape:zoom="1"
     inkscape:cx="384.24501"
     inkscape:cy="114.4528"
     inkscape:window-x="47"
     inkscape:window-y="24"
     inkscape:window-maximized="1"
     inkscape:current-layer="g10"
     showguides="true"
     inkscape:guide-bbox="true"><sodipodi:guide
       orientation="0,1"
       position="459.26361,0.56179035"
       id="guide3018" /><sodipodi:guide
       orientation="1,0"
       position="489.0385,-3.9325324"
       id="guide3022" /><sodipodi:guide
       orientation="1,0"
       position="620.70811,-9.1290932"
       id="guide3024" /></sodipodi:namedview><g
     id="g10"
     inkscape:groupmode="layer"
     inkscape:label="vetted_vector"
     transform="matrix(1.25,0,0,-1.25,0,80)"><g
       id="g3026"
       transform="translate(-0.39325324,0.10271927)"
       inkscape:export-filename="/home/junaid/Downloads/vetted-logo-black.png"
       inkscape:export-xdpi="16.054508"
       inkscape:export-ydpi="16.054508"><g
         transform="translate(-208.65525,-299.64091)"
         id="g2998"><g
           id="g12"
           transform="translate(234.1328,300)"><path
             inkscape:connector-curvature="0"
             d="m 0,0 -24.662,62.786 12.519,0 19.015,-50.737 19.014,50.737 12.52,0 L 13.743,0 0,0 z"
             style="fill:#f26936;fill-opacity:1;fill-rule:nonzero;stroke:none"
             id="path14" /></g><g
           id="g16"
           transform="translate(288.7319,300)"><path
             inkscape:connector-curvature="0"
             d="m 0,0 0,62.786 43.018,0 0,-9.696 -32.004,0 0,-16.191 31.346,0 0,-9.695 -31.346,0 0,-17.509 32.004,0 L 43.018,0 0,0 z"
             style="fill:#373535;fill-opacity:1;fill-rule:nonzero;stroke:none"
             id="path18" /></g><g
           id="g20"
           transform="translate(367.4287,300)"><path
             inkscape:connector-curvature="0"
             d="m 0,0 0,53.09 -19.015,0 0,9.696 49.042,0 0,-9.696 -19.013,0 L 11.014,0 0,0 z"
             style="fill:#373535;fill-opacity:1;fill-rule:nonzero;stroke:none"
             id="path22" /></g><g
           id="g24"
           transform="translate(431.1592,300)"><path
             inkscape:connector-curvature="0"
             d="m 0,0 0,53.09 -19.015,0 0,9.696 49.042,0 0,-9.696 -19.013,0 L 11.014,0 0,0 z"
             style="fill:#373535;fill-opacity:1;fill-rule:nonzero;stroke:none"
             id="path26" /></g><g
           id="g28"
           transform="translate(479.9229,300)"><path
             inkscape:connector-curvature="0"
             d="m 0,0 0,62.786 43.018,0 0,-9.696 -32.005,0 0,-16.191 31.346,0 0,-9.695 -31.346,0 0,-17.509 32.005,0 L 43.018,0 0,0 z"
             style="fill:#373535;fill-opacity:1;fill-rule:nonzero;stroke:none"
             id="path30" /></g><g
           id="g32"><g
             id="g34"
             clip-path="url(#clipPath36)"><g
               id="g40"
               transform="translate(588.5527,331.4399)"><path
                 inkscape:connector-curvature="0"
                 d="m 0,0 c 0,12.049 -7.53,21.65 -21.462,21.65 l -12.426,0 0,-43.395 12.332,0 C -7.907,-21.745 0,-11.955 0,0 m -44.9,-31.44 0,62.786 23.344,0 c 19.673,0 32.852,-12.991 32.852,-31.346 0,-18.544 -13.179,-31.44 -32.758,-31.44 l -23.438,0 z"
                 style="fill:#373535;fill-opacity:1;fill-rule:nonzero;stroke:none"
                 id="path42" /></g></g></g></g><text
         transform="scale(1,-1)"
         sodipodi:linespacing="125%"
         id="text3014"
         y="-1.1165556"
         x="398.89185"
         style="font-size:8px;font-style:normal;font-variant:normal;font-weight:300;font-stretch:normal;text-align:start;line-height:125%;letter-spacing:0px;word-spacing:0px;writing-mode:lr-tb;text-anchor:start;fill:#373535;fill-opacity:1;stroke:none;font-family:Roboto;-inkscape-font-specification:Roboto Light"
         xml:space="preserve"><tspan
           style="font-size:51.20000076px;font-style:normal;font-variant:normal;font-weight:300;font-stretch:normal;fill:#373535;fill-opacity:1;font-family:Helvetica Neue;-inkscape-font-specification:Helvetica Neue Light"
           y="-1.1165556"
           x="398.89185"
           id="tspan3016"
           sodipodi:role="line">beta</tspan></text>
</g></g></svg>