<?xml version="1.0" encoding="UTF-8" standalone="no"?>
<svg
   xmlns:dc="http://purl.org/dc/elements/1.1/"
   xmlns:cc="http://creativecommons.org/ns#"
   xmlns:rdf="http://www.w3.org/1999/02/22-rdf-syntax-ns#"
   xmlns:svg="http://www.w3.org/2000/svg"
   xmlns="http://www.w3.org/2000/svg"
   xmlns:sodipodi="http://sodipodi.sourceforge.net/DTD/sodipodi-0.dtd"
   xmlns:inkscape="http://www.inkscape.org/namespaces/inkscape"
   version="1.1"
   id="Layer_1"
   x="0px"
   y="0px"
   width="100px"
   height="100px"
   viewBox="5.0 -10.0 100.0 135.0"
   enable-background="new 0 0 100 100"
   xml:space="preserve"
   inkscape:version="0.48.5 r10040"
   sodipodi:docname="noun_100713_cc.svg"
   inkscape:export-filename="/home/junaid/Downloads/noun_100713_cc.png"
   inkscape:export-xdpi="1279.89"
   inkscape:export-ydpi="1279.89"><metadata
     id="metadata19"><rdf:RDF><cc:Work
         rdf:about=""><dc:format>image/svg+xml</dc:format><dc:type
           rdf:resource="http://purl.org/dc/dcmitype/StillImage" /><dc:title></dc:title></cc:Work></rdf:RDF></metadata><defs
     id="defs17" /><sodipodi:namedview
     pagecolor="#ffffff"
     bordercolor="#666666"
     borderopacity="1"
     objecttolerance="10"
     gridtolerance="10"
     guidetolerance="10"
     inkscape:pageopacity="0"
     inkscape:pageshadow="2"
     inkscape:window-width="1311"
     inkscape:window-height="744"
     id="namedview15"
     showgrid="false"
     showguides="true"
     inkscape:guide-bbox="true"
     inkscape:zoom="4.72"
     inkscape:cx="50.86815"
     inkscape:cy="41.65925"
     inkscape:window-x="55"
     inkscape:window-y="24"
     inkscape:window-maximized="1"
     inkscape:current-layer="Layer_1"><sodipodi:guide
       orientation="0,1"
       position="50.785847,55.729602"
       id="guide3775" /><sodipodi:guide
       orientation="1,0"
       position="46.441335,53.33263"
       id="guide3777" /></sodipodi:namedview><g
     id="g3"
     transform="matrix(1.25,0,0,1.25,-7.9888878,-5.1131963)"><g
       id="g3779"
       inkscape:export-filename="/home/junaid/Downloads/handshake2.png"
       inkscape:export-xdpi="168.75"
       inkscape:export-ydpi="168.75"><rect
         y="-3.9020066"
         x="-3.6012402"
         height="108"
         width="108"
         id="rect3773"
         style="opacity:0;fill:#ff0000;fill-opacity:1;fill-rule:evenodd" /><g
         id="g3768"><path
           d="M 94.619,23.576 C 94.377,23.382 94.06,23.31 93.764,23.378 l -16.818,3.777 c -0.281,0.062 -0.521,0.24 -0.662,0.491 -0.141,0.249 -0.169,0.546 -0.079,0.818 l 0.302,0.903 H 64.015 c -1.303,-0.8 -7.277,-4.396 -12.66,-6.357 -1.171,-0.425 -2.613,-0.65 -4.174,-0.65 -2.703,0 -5.417,0.674 -7.263,1.805 -0.834,0.516 -1.912,1.246 -3.164,2.135 -0.845,-0.075 -1.666,-0.128 -2.473,-0.128 -3.29,0 -6.679,0.649 -10.453,2.008 0.007,-0.185 -0.019,-0.367 -0.111,-0.531 -0.141,-0.25 -0.381,-0.43 -0.661,-0.491 L 6.236,23.38 C 5.936,23.31 5.621,23.386 5.38,23.578 5.14,23.769 5,24.06 5,24.369 l 0.001,31.786 c 0,0.27 0.107,0.527 0.297,0.717 0.19,0.19 0.448,0.297 0.717,0.297 0,0 0,0 0.001,0 l 7.479,-0.003 c 0.436,0 0.823,-0.281 0.96,-0.694 l 0.087,-0.262 c 0.923,0.448 2.095,1.015 3.396,1.636 -0.163,1.774 0.581,3.59 2.144,4.687 0.869,0.607 1.885,0.927 2.939,0.927 0.501,0 0.985,-0.095 1.454,-0.233 0.009,0.237 0.013,0.475 0.056,0.713 0.237,1.351 0.988,2.526 2.112,3.315 0.868,0.61 1.885,0.932 2.94,0.932 0.569,0 1.112,-0.128 1.637,-0.307 0.006,0.263 0.015,0.527 0.061,0.789 0.238,1.347 0.987,2.523 2.111,3.312 0.869,0.61 1.886,0.931 2.944,0.931 0.57,0 1.115,-0.127 1.64,-0.305 0.036,1.584 0.779,3.13 2.167,4.107 0.868,0.606 1.884,0.927 2.939,0.927 1.678,0 3.251,-0.82 4.208,-2.192 l 3.233,-4.621 c 0.649,0.455 1.069,0.749 1.069,0.749 l 2.769,1.936 c 0.87,0.61 1.886,0.932 2.944,0.932 1.673,0 3.243,-0.82 4.203,-2.192 0.677,-0.965 0.998,-2.106 0.923,-3.268 2.174,1.033 4.999,0.306 6.405,-1.695 0.677,-0.967 0.974,-2.084 0.924,-3.172 2.216,1.239 5.25,0.554 6.713,-1.538 0.693,-0.99 0.985,-2.147 0.908,-3.275 2.161,0.946 4.9,0.193 6.27,-1.764 0.628,-0.899 0.918,-1.933 0.91,-2.955 h 0.354 l 0.63,1.886 c 0.137,0.413 0.523,0.694 0.961,0.694 h 7.48 C 94.547,57.166 95,56.711 95,56.151 V 24.367 c 0,-0.308 -0.14,-0.599 -0.381,-0.791 z M 92.971,55.137 H 87.236 L 87.049,54.575 86.715,53.573 78.98,30.381 78.643,29.367 78.483,28.888 92.97,25.633 V 55.137 z M 84.13,52.559 c -0.176,-0.403 -0.412,-0.783 -0.693,-1.137 -0.023,-0.031 -0.045,-0.063 -0.071,-0.091 -0.285,-0.345 -0.6,-0.667 -0.983,-0.935 L 63.58,37.246 c -0.022,-0.02 -0.119,-0.095 -0.277,-0.218 -0.062,-0.047 -0.17,-0.13 -0.249,-0.191 -0.131,-0.101 -0.242,-0.188 -0.42,-0.319 -0.119,-0.092 -0.28,-0.209 -0.421,-0.313 C 62.025,36.066 61.857,35.937 61.634,35.776 61.464,35.654 61.258,35.51 61.072,35.377 60.831,35.205 60.603,35.04 60.333,34.852 60.134,34.716 59.91,34.567 59.7,34.425 59.399,34.22 59.109,34.021 58.783,33.805 58.554,33.655 58.303,33.5 58.062,33.345 57.721,33.127 57.39,32.914 57.031,32.692 56.767,32.529 56.486,32.367 56.212,32.204 55.853,31.991 55.5,31.776 55.124,31.562 54.827,31.394 54.518,31.234 54.21,31.067 c -0.328,-0.178 -0.649,-0.36 -0.984,-0.533 -0.06,-0.051 -0.139,-0.089 -0.242,-0.121 -0.006,-0.004 -0.013,-0.008 -0.018,-0.012 -0.146,-0.071 -0.302,-0.107 -0.458,-0.107 -0.005,0 -0.008,0 -0.008,0 H 51.193 C 50.859,30.29 50.474,30.29 50.022,30.29 l -7.095,0.004 c -0.243,0 -0.477,0.087 -0.661,0.245 -1.583,1.363 -6.327,4.901 -9.227,4.904 -1.659,0 -2.583,-0.436 -2.761,-0.868 -0.131,-0.317 0.096,-0.822 0.506,-1.242 0.009,-0.006 0.236,-0.188 0.623,-0.489 0.436,-0.343 1.075,-0.84 1.833,-1.42 1.262,-0.968 2.857,-2.168 4.399,-3.272 10e-4,0 10e-4,-0.001 10e-4,-0.002 1.354,-0.966 2.479,-1.727 3.34,-2.26 1.537,-0.94 3.854,-1.503 6.199,-1.503 1.327,0 2.53,0.183 3.479,0.527 5.749,2.094 12.46,6.281 12.526,6.325 0.161,0.101 0.35,0.154 0.54,0.154 h 13.455 l 7.058,21.164 -0.107,0.002 0,0 z m -6.473,4.583 -18.612,-13.03 c -0.455,-0.32 -1.092,-0.209 -1.412,0.249 -0.32,0.458 -0.21,1.089 0.249,1.41 l 16.212,11.352 c 1.361,0.992 1.687,2.917 0.718,4.298 -0.942,1.351 -2.962,1.715 -4.324,0.762 L 56.481,52.38 c -0.461,-0.319 -1.09,-0.208 -1.411,0.25 -0.32,0.456 -0.21,1.09 0.25,1.41 l 11.182,7.827 c 1.336,1.018 1.632,2.884 0.675,4.258 -0.952,1.351 -2.966,1.715 -4.332,0.761 L 48.375,56.789 48.367,56.781 c -0.458,-0.32 -1.091,-0.21 -1.411,0.25 -0.32,0.459 -0.209,1.093 0.249,1.413 l 11.88,8.322 c 0.683,0.476 1.134,1.185 1.276,2.005 0.145,0.815 -0.04,1.639 -0.519,2.322 -0.945,1.35 -2.958,1.714 -4.319,0.76 l -2.769,-1.937 c 0,0 -0.486,-0.342 -1.216,-0.855 0.318,-0.844 0.429,-1.76 0.266,-2.675 -0.237,-1.351 -0.986,-2.526 -2.11,-3.315 -1,-0.704 -2.216,-0.951 -3.399,-0.836 0.849,-2.151 0.164,-4.69 -1.818,-6.093 -2.249,-1.564 -5.584,-0.971 -7.155,1.267 l -0.031,0.045 C 36.954,56.384 36.296,55.448 35.361,54.8 33.518,53.509 30.956,53.698 29.228,55.033 28.902,53.916 28.233,52.939 27.262,52.261 25.02,50.69 21.679,51.294 20.12,53.529 l -1.301,1.854 c -0.112,0.159 -0.19,0.333 -0.282,0.504 -1.302,-0.626 -2.459,-1.188 -3.348,-1.619 L 23.06,30.671 c 4.105,-1.645 7.623,-2.453 11.083,-2.472 -0.019,0.014 -0.038,0.028 -0.057,0.043 -0.155,0.115 -0.303,0.226 -0.455,0.34 -0.216,0.163 -0.428,0.321 -0.635,0.479 -0.137,0.104 -0.269,0.203 -0.402,0.306 -0.238,0.18 -0.463,0.353 -0.682,0.521 -0.077,0.06 -0.157,0.121 -0.232,0.179 -0.306,0.236 -0.589,0.453 -0.845,0.654 -0.004,0.003 -0.01,0.008 -0.015,0.011 -0.247,0.191 -0.459,0.358 -0.647,0.507 -0.057,0.044 -0.099,0.078 -0.15,0.117 -0.121,0.095 -0.22,0.174 -0.305,0.242 -0.04,0.032 -0.077,0.062 -0.109,0.087 -0.092,0.074 -0.159,0.127 -0.172,0.139 -1.12,1.121 -1.498,2.407 -1.032,3.53 0.327,0.788 1.362,2.115 4.634,2.119 0.942,0 1.973,-0.257 3.01,-0.656 0.777,-0.299 1.559,-0.681 2.309,-1.095 0.562,-0.313 1.106,-0.642 1.618,-0.973 1.535,-0.99 2.775,-1.976 3.321,-2.426 l 6.726,-0.003 c 1.02,0 1.854,0 2.24,0.002 0.168,0.087 0.331,0.185 0.502,0.272 0.285,0.15 0.566,0.305 0.848,0.458 0.271,0.15 0.546,0.3 0.812,0.452 0.355,0.206 0.7,0.414 1.046,0.622 0.254,0.155 0.514,0.309 0.761,0.462 0.337,0.208 0.651,0.414 0.969,0.62 0.229,0.148 0.469,0.3 0.688,0.445 0.312,0.207 0.595,0.402 0.882,0.598 0.191,0.133 0.397,0.27 0.578,0.395 0.283,0.198 0.531,0.378 0.782,0.559 0.145,0.103 0.308,0.218 0.439,0.313 0.263,0.19 0.477,0.353 0.686,0.507 0.079,0.059 0.183,0.135 0.252,0.188 0.213,0.161 0.372,0.284 0.506,0.386 0.032,0.023 0.086,0.065 0.111,0.087 0.141,0.107 0.227,0.177 0.237,0.187 l 18.855,13.186 c 0.646,0.452 1.055,1.108 1.226,1.822 0.203,0.831 0.071,1.742 -0.457,2.498 -0.941,1.352 -2.965,1.718 -4.329,0.763 z m -28.367,11.912 -0.427,0.61 -3.235,4.627 c -0.941,1.347 -2.963,1.71 -4.32,0.76 -1.395,-0.978 -1.737,-2.915 -0.772,-4.321 10e-4,0 0.002,0 0.003,-0.003 l 1.236,-1.764 2.005,-2.859 0.427,-0.611 c 0.053,-0.075 0.124,-0.131 0.18,-0.202 0.229,-0.27 0.494,-0.505 0.795,-0.681 0.472,-0.279 1.007,-0.444 1.57,-0.444 0.637,0 1.253,0.198 1.777,0.566 0.682,0.476 1.135,1.188 1.279,2.005 0.065,0.372 0.055,0.744 -0.013,1.105 -0.065,0.341 -0.193,0.67 -0.373,0.979 -0.044,0.074 -0.079,0.157 -0.132,0.233 z m -14.734,1.267 c -0.68,-0.476 -1.134,-1.188 -1.277,-2.005 -0.143,-0.815 0.039,-1.641 0.516,-2.317 l 1.185,-1.696 0.646,-0.926 0.65,-0.931 2.707,-3.872 c 0.584,-0.831 1.539,-1.326 2.557,-1.326 0.639,0 1.253,0.194 1.774,0.559 1.405,0.991 1.747,2.932 0.763,4.329 l -1.006,1.438 -0.62,0.884 -0.626,0.895 -1.632,2.334 -1.314,1.878 c -10e-4,0 -0.003,0.003 -0.005,0.003 -0.947,1.343 -2.96,1.703 -4.318,0.753 z m -8.028,-6.733 c -0.1,-0.562 -0.034,-1.125 0.167,-1.649 0.016,-0.038 0.022,-0.079 0.04,-0.118 0.169,-0.182 0.351,-0.345 0.493,-0.551 l 0.107,-0.155 0.593,-0.846 0.6,-0.853 c 0.233,-0.333 0.41,-0.694 0.557,-1.062 l 0.793,-1.134 c 0.58,-0.828 1.53,-1.322 2.543,-1.322 0.637,0 1.253,0.194 1.781,0.562 0.678,0.476 1.131,1.184 1.276,1.996 0.145,0.816 -0.039,1.645 -0.516,2.325 l -0.921,1.32 -0.643,0.915 -0.637,0.911 -0.633,0.903 c -0.943,1.351 -2.963,1.72 -4.321,0.765 -0.68,-0.476 -1.135,-1.188 -1.279,-2.007 z m -6.541,-5.887 c 0.067,-0.324 0.199,-0.643 0.376,-0.943 0.042,-0.071 0.07,-0.144 0.118,-0.21 l 1.303,-1.857 c 0.58,-0.828 1.532,-1.327 2.547,-1.327 0.634,0 1.247,0.194 1.769,0.559 0.684,0.479 1.138,1.191 1.283,2.008 0.089,0.504 0.039,1.007 -0.113,1.481 -0.095,0.293 -0.22,0.579 -0.403,0.841 l -0.82,1.173 -0.479,0.681 c -0.039,0.057 -0.089,0.1 -0.131,0.151 -0.107,0.135 -0.22,0.257 -0.347,0.369 -0.157,0.137 -0.327,0.252 -0.509,0.355 -1.019,0.57 -2.346,0.583 -3.333,-0.106 -0.716,-0.504 -1.152,-1.257 -1.282,-2.057 -0.06,-0.37 -0.054,-0.747 0.021,-1.118 z M 12.763,55.137 H 12.416 7.029 l 0,-29.501 14.489,3.254 -0.076,0.228 -0.43,1.29 -7.984,23.934 -0.265,0.795 z"
           id="path5"
           style="fill:#77c747;fill-opacity:1;fill-rule:evenodd"
           inkscape:connector-curvature="0" /><path
           d="m 87.362,36.709 h 0.003 c 1.085,0 2.104,-0.424 2.873,-1.192 0.77,-0.771 1.192,-1.793 1.19,-2.876 0.002,-1.087 -0.419,-2.109 -1.187,-2.877 -1.521,-1.525 -4.213,-1.551 -5.76,0.004 -0.766,0.769 -1.188,1.79 -1.188,2.874 0.002,2.239 1.826,4.064 4.069,4.067 z m -1.441,-5.513 c 0.382,-0.384 0.891,-0.599 1.448,-0.599 0.544,0 1.055,0.213 1.437,0.599 0.385,0.385 0.597,0.896 0.594,1.442 0.003,0.546 -0.211,1.057 -0.595,1.444 -0.385,0.386 -0.896,0.598 -1.439,0.598 -1.128,-10e-4 -2.043,-0.917 -2.043,-2.04 -10e-4,-0.544 0.211,-1.057 0.598,-1.444 z"
           id="path7"
           style="fill:#77c747;fill-opacity:1"
           inkscape:connector-curvature="0" /><path
           d="m 12.637,28.567 c -2.245,0.003 -4.07,1.832 -4.069,4.076 0,2.242 1.827,4.066 4.073,4.066 1.087,0 2.108,-0.422 2.875,-1.192 0.768,-0.769 1.188,-1.793 1.187,-2.874 0.008,-2.239 -1.813,-4.069 -4.066,-4.076 z m -2.041,4.073 c -10e-4,-1.127 0.917,-2.044 2.04,-2.046 1.128,0.003 2.043,0.919 2.04,2.046 10e-4,0.544 -0.209,1.057 -0.596,1.443 -0.383,0.385 -0.896,0.597 -1.44,0.597 -1.127,10e-4 -2.044,-0.915 -2.044,-2.04 z"
           id="path9"
           style="fill:#77c747;fill-opacity:1"
           inkscape:connector-curvature="0" /></g></g></g><text
     x="141.00636"
     y="121.21822"
     font-size="5.0"
     font-weight="bold"
     id="text11"
     style="font-size:5px;font-weight:bold;fill:#000000;font-family:'Helvetica Neue, Helvetica, Arial-Unicode, Arial, Sans-serif'">Created by Jeff Portaro</text>
<text
     x="141.00636"
     y="126.21822"
     font-size="5.0"
     font-weight="bold"
     id="text13"
     style="font-size:5px;font-weight:bold;fill:#000000;font-family:'Helvetica Neue, Helvetica, Arial-Unicode, Arial, Sans-serif'">from the Noun Project</text>
</svg>